<svg id="Capa_1" enable-background="new 0 0 512 512" height="512" viewBox="0 0 512 512" width="512" xmlns="http://www.w3.org/2000/svg"><g><g><g><path d="m316.818 465.903h-193.573v-55.448c0-7.398 5.997-13.395 13.395-13.395h166.782c7.398 0 13.395 5.997 13.395 13.395v55.448z" fill="#eb9c8d"/><path d="m303.423 397.06h-37.968c7.398 0 13.396 5.997 13.396 13.395v55.448h37.968v-55.448c-.001-7.398-5.998-13.395-13.396-13.395z" fill="#d78878"/><path d="m204.317 44.031h31.43v353.029h-31.43z" fill="#537983"/><path d="m217.002 44.031h18.745v353.029h-18.745z" fill="#4b6f77"/><path d="m336.968 465.903h-233.872c-6.035 0-11.469 3.655-13.745 9.244l-9.806 24.083c-1.025 2.516.827 5.269 3.544 5.269h273.886c2.717 0 4.568-2.753 3.544-5.269l-9.806-24.083c-2.276-5.589-7.71-9.244-13.745-9.244z" fill="#2ed1e2"/><path d="m360.519 499.231-9.806-24.083c-2.276-5.59-7.71-9.244-13.745-9.244h-37.968c6.035 0 11.469 3.655 13.745 9.244l9.806 24.083c1.025 2.516-.827 5.269-3.544 5.269h37.968c2.717 0 4.568-2.753 3.544-5.269z" fill="#03bed7"/><circle cx="220.032" cy="37.746" fill="#537983" r="30.246"/><path d="m220.032 7.5c-3.87 0-7.567.735-10.969 2.06 11.28 4.393 19.277 15.352 19.277 28.186s-7.997 23.793-19.277 28.186c3.402 1.325 7.098 2.06 10.969 2.06 16.704 0 30.246-13.542 30.246-30.246s-13.542-30.246-30.246-30.246z" fill="#4b6f77"/><path d="m261.895 465.903h-83.727v-27.331c0-5.923 4.802-10.725 10.725-10.725h62.278c5.923 0 10.725 4.802 10.725 10.725v27.331z" fill="#dcf5f8"/><path d="m251.171 427.848h-21.937c5.923 0 10.724 4.802 10.724 10.725v27.331h21.938v-27.331c-.001-5.924-4.802-10.725-10.725-10.725z" fill="#b3edf2"/></g><path d="m235.747 65.769v150.16s49.767-30.55 78.768-29.289 56.11 13.527 81.958 9.114c15.401-2.629 26.997-10.879 33.855-17.117 3.691-3.358 3.053-9.303-1.266-11.803-11.532-6.673-33.027-22.008-52.133-51.666-17.022-26.423-59.815-78.843-141.182-49.399z" fill="#2ed1e2"/><g><path d="m429.062 166.834c-11.532-6.673-33.027-22.008-52.133-51.667-15.065-23.385-50.321-67.12-114.63-56.461 40.736 7.423 64.877 38.168 76.662 56.461 19.106 29.659 40.602 44.993 52.134 51.667 4.319 2.499 4.957 8.445 1.266 11.803-6.066 5.518-15.844 12.601-28.676 15.985 11.175 1.925 22.091 2.959 32.789 1.132 15.401-2.629 26.997-10.879 33.855-17.117 3.691-3.358 3.053-9.303-1.267-11.803z" fill="#03bed7"/></g><path d="m279.439 123.22-2.424-7.299c-1.045-3.148.892-6.503 4.14-7.171 9.462-1.611 9.549-1.674 15.666-9.045 2.204-2.479 6.077-2.479 8.281 0 6.126 7.389 6.224 7.433 15.666 9.045 3.249.669 5.186 4.023 4.14 7.171-3.325 8.905-3.314 9.201 0 18.09 1.045 3.148-.892 6.503-4.14 7.171-9.462 1.611-9.549 1.674-15.666 9.045-2.204 2.479-6.077 2.479-8.281 0-6.126-7.389-6.224-7.433-15.666-9.045-3.249-.669-5.186-4.023-4.14-7.171.552-2.41 3.567-8.315 2.424-10.791z" fill="#ffd15b"/><path d="m324.91 115.921c1.045-3.148-.892-6.503-4.14-7.171-9.442-1.612-9.54-1.656-15.666-9.045-2.204-2.479-6.077-2.479-8.281 0-3.184 3.837-4.74 5.686-6.829 6.812 1.927 1.039 4.302 1.458 8.838 2.233 3.249.669 5.186 4.023 4.14 7.171-3.324 8.906-3.314 9.201 0 18.09 1.045 3.148-.892 6.503-4.14 7.172-4.537.773-6.913 1.196-8.838 2.233 2.084 1.124 3.645 2.973 6.828 6.812 2.204 2.479 6.077 2.479 8.281 0 6.117-7.371 6.204-7.433 15.666-9.045 3.249-.669 5.186-4.023 4.14-7.172-3.314-8.889-3.324-9.184.001-18.09z" fill="#ffc344"/></g><g><path d="m440.156 171.615c-.502-4.69-3.245-8.904-7.337-11.272-10.639-6.156-31.227-20.738-49.586-49.236-13.921-21.611-30.452-37.811-49.135-48.15-23.754-13.147-50.361-16.636-79.321-10.465 1.931-4.532 3.001-9.516 3.001-14.745 0-20.814-16.932-37.747-37.746-37.747s-37.746 16.933-37.746 37.746c0 12.062 5.694 22.812 14.527 29.727v148.455c0 4.142 3.357 7.5 7.5 7.5h.001s.001 0 .001 0h23.928v166.132h-16.431v-138.272c0-4.142-3.357-7.5-7.5-7.5s-7.5 3.358-7.5 7.5v138.272h-60.173c-11.521 0-20.896 9.374-20.896 20.896v47.948h-12.649c-9.128 0-17.25 5.462-20.691 13.916l-9.806 24.083c-1.425 3.498-1.017 7.458 1.092 10.592 2.107 3.134 5.621 5.005 9.398 5.005h273.886c3.778 0 7.292-1.872 9.4-5.007 2.107-3.135 2.515-7.095 1.09-10.59l-9.806-24.083c-3.441-8.454-11.563-13.917-20.691-13.917h-67.572v-19.831c0-10.049-8.176-18.225-18.225-18.225h-62.278c-10.049 0-18.225 8.176-18.225 18.225v19.831h-39.923v-47.948c0-3.251 2.645-5.896 5.896-5.896h166.782c3.251 0 5.896 2.645 5.896 5.896v20.425c0 4.142 3.357 7.5 7.5 7.5s7.5-3.358 7.5-7.5v-20.425c0-11.522-9.374-20.896-20.896-20.896h-60.179v-169.347c4.75-2.744 13.778-7.767 24.317-12.666 19.871-9.237 36.022-13.876 46.627-13.413 11.285.491 22.604 2.804 33.551 5.042 16.396 3.351 33.352 6.814 49.995 3.973 17.088-2.917 29.901-11.922 37.641-18.962 3.499-3.183 5.286-7.882 4.783-12.571zm-254.488 266.957c0-1.778 1.446-3.225 3.225-3.225h62.278c1.778 0 3.225 1.447 3.225 3.225v19.831h-68.728zm151.3 34.831c2.999 0 5.668 1.794 6.799 4.572l7.746 19.025h-262.962l7.746-19.025c1.131-2.777 3.8-4.572 6.799-4.572zm-116.936-458.403c12.542 0 22.746 10.204 22.746 22.746s-10.204 22.746-22.746 22.746-22.746-10.204-22.746-22.746 10.204-22.746 22.746-22.746zm-8.218 193.429v-133.849c2.648.59 5.396.912 8.219.912 2.821 0 5.566-.321 8.212-.91v133.847zm183.396-20.068c-13.873 2.369-28.735-.668-44.467-3.883-11.52-2.354-23.431-4.789-35.902-5.331-22.353-.977-54.589 14.623-71.594 23.858v-131.885c31.18-10.156 59.278-8.494 83.588 4.96 16.491 9.127 31.224 23.644 43.789 43.149 19.961 30.986 42.637 47.096 54.508 53.996-6.274 5.673-16.515 12.847-29.922 15.136z"/><path d="m332.026 118.286c1.174-3.531.779-7.405-1.081-10.628-1.86-3.224-5.018-5.503-8.663-6.253-.083-.017-.167-.033-.251-.047-3.348-.571-5.767-.984-6.592-1.46-.833-.48-2.479-2.465-4.562-4.978-.055-.066-.111-.131-.168-.196-2.473-2.782-6.026-4.377-9.748-4.376-3.722 0-7.273 1.596-9.745 4.378-.056.063-.111.127-.165.191-2.169 2.614-3.736 4.502-4.561 4.979-.832.481-3.375.914-6.593 1.462-.085.015-.17.03-.254.048-3.645.75-6.802 3.029-8.663 6.251-1.86 3.223-2.255 7.097-1.083 10.629l2.223 6.693c-1.433 4.46-4.66 10.992-1.139 17.299 1.86 3.223 5.019 5.501 8.663 6.251.083.017.166.033.25.047 3.347.571 5.766.984 6.591 1.46.833.48 2.479 2.465 4.563 4.979.055.065.11.131.167.194 2.472 2.782 6.024 4.377 9.745 4.377h.002c3.721 0 7.273-1.595 9.745-4.376.058-.064.113-.128.167-.194 2.169-2.613 3.735-4.501 4.561-4.979.832-.481 3.374-.914 6.593-1.462.085-.014.169-.03.253-.047 3.646-.75 6.803-3.029 8.664-6.253 1.86-3.223 2.255-7.098 1.081-10.629-.028-.085-.059-.17-.09-.255-1.126-3.022-2.016-5.409-2.017-6.423 0-1.022.934-3.526 2.016-6.424.033-.086.063-.172.091-.258zm-15.02 15.945c-8.237 1.528-10.592 2.888-16.043 9.265-5.461-6.393-7.814-7.741-16.126-9.279.051-.138.102-.273.147-.4 1.45-3.927 3.242-8.777 1.485-13.225l-1.62-4.879c8.293-1.533 10.646-2.884 16.112-9.278 5.443 6.372 7.799 7.731 16.044 9.264-2.775 7.824-2.775 10.698.001 18.532z"/></g></g></svg>